<svg width="122" height="25" viewBox="0 0 122 25" fill="none" xmlns="http://www.w3.org/2000/svg">
<path fill-rule="evenodd" clip-rule="evenodd" d="M9.62769 25L5.61776 21.1027H16.8486V6.28976H20.8594C20.8594 6.28976 20.8594 14.776 20.8594 20.3181L16.0422 25C13.9775 25 11.5939 25 9.62769 25ZM52.0289 6.0329C49.6126 6.0329 47.4395 6.80091 45.8687 8.28867C44.2986 9.77585 43.3266 11.9845 43.3266 14.8786C43.3266 17.7727 44.2986 19.9813 45.8687 21.4685C47.4395 22.9562 49.6126 23.7242 52.0289 23.7242C54.4452 23.7242 56.6183 22.9562 58.1891 21.4685C59.7592 19.9813 60.7314 17.7727 60.7314 14.8786C60.7314 11.9845 59.7592 9.77585 58.1891 8.28867C56.6183 6.80091 54.4452 6.0329 52.0289 6.0329ZM118.41 8.13839V8.79811H121.845V7.9521C121.845 6.70177 121.517 5.60003 120.86 4.64686C120.202 3.69283 119.282 2.94938 118.1 2.41566C116.915 1.88078 115.55 1.61364 114.004 1.61364C111.801 1.61364 110.041 2.13622 108.723 3.18454C107.41 4.22914 106.754 5.65317 106.754 7.45579C106.754 8.66326 107.056 9.67158 107.66 10.4799C108.267 11.2905 109.022 11.9319 109.927 12.4039C110.836 12.8788 112.026 13.3848 113.494 13.9217C113.495 13.9217 113.495 13.9217 113.495 13.9217C114.803 14.4191 115.784 14.8337 116.438 15.1654C117.097 15.5 117.605 15.8717 117.961 16.2798C118.322 16.6929 118.503 17.1961 118.503 17.7892C118.503 18.6544 118.175 19.361 117.52 19.9098C116.87 20.4541 115.905 20.7293 114.626 20.7293C113.224 20.7293 112.099 20.409 111.252 19.7719C110.398 19.1296 109.972 18.3235 109.972 17.3546V16.4469H106.537V17.5409C106.537 18.7707 106.854 19.8519 107.491 20.7845C108.128 21.7176 109.037 22.4402 110.218 22.9531C111.404 23.4674 112.779 23.7242 114.346 23.7242C115.912 23.7242 117.273 23.4728 118.427 22.9685C119.577 22.4662 120.461 21.759 121.077 20.8467C121.692 19.9347 122 18.8847 122 17.6961C122 16.4889 121.688 15.4809 121.063 14.6726C120.436 13.8617 119.686 13.2305 118.812 12.7791C117.934 12.3248 116.76 11.8191 115.292 11.2619L115.291 11.261C113.899 10.7636 112.873 10.3544 112.209 10.0333C111.538 9.70871 111.035 9.347 110.699 8.94898C110.36 8.54669 110.189 8.02868 110.189 7.39351C110.189 6.50606 110.513 5.81947 111.159 5.33345C111.799 4.85173 112.695 4.60887 113.849 4.60887C115.273 4.60887 116.388 4.95058 117.194 5.63003C118.005 6.31348 118.41 7.14979 118.41 8.13839ZM70.3703 8.25153H70.5938C71.6527 6.88007 73.3322 6.0329 75.7309 6.0329C77.8061 6.0329 79.48 6.63778 80.6372 7.77324C81.7949 8.90899 82.4411 10.5802 82.4411 12.7322V23.4411H79.2452V13.1962C79.2452 11.7905 78.8838 10.7147 78.18 9.99359C77.4783 9.27442 76.4408 8.91412 75.1114 8.91412C73.628 8.91412 72.4382 9.35099 71.6224 10.2582C70.8789 11.0848 70.4479 12.2942 70.3703 13.896V23.4005H67.1621V6.2909H70.3703V7.8501H70.3577H70.3703V8.25153ZM41.7144 6.2909C41.7144 6.2909 41.7144 15.3732 41.7144 20.319L38.5023 23.4411C36.9901 23.4411 35.1912 23.4411 33.6795 23.4411L30.4713 20.323H38.5062V6.2909H41.7144ZM93.6701 20.323L90.4619 23.4411C90.4619 23.4411 88.8602 23.4411 87.2574 23.4411L84.045 20.319V1.61364H87.2536V6.2909H92.0661V9.40928H87.2536V20.323H101.705V1.61364H104.914C104.914 1.61364 104.914 14.2857 104.914 20.319L101.701 23.4411C100.189 23.4411 98.39 23.4411 96.8784 23.4411L93.6701 20.323ZM65.544 23.4005H62.3354V6.2909H65.544V23.4005ZM52.0289 8.95899C53.6196 8.95899 54.9849 9.48414 55.9507 10.4862C56.9214 11.4933 57.4858 12.9782 57.4858 14.8786C57.4858 16.7792 56.9214 18.2638 55.9507 19.271C54.9849 20.273 53.6196 20.7982 52.0289 20.7982C50.4381 20.7982 49.0729 20.273 48.1071 19.271C47.1364 18.2638 46.5719 16.7792 46.5719 14.8786C46.5719 12.9782 47.1364 11.4933 48.1071 10.4862C49.0729 9.48414 50.4381 8.95899 52.0289 8.95899ZM4.00993 19.5401L0 15.6432C0 15.6429 0 15.6429 0 15.6429H11.2312V0.830191H15.242C15.242 0.830191 15.242 9.31642 15.242 14.8583L10.4244 19.5401C8.36008 19.5401 5.97639 19.5401 4.00993 19.5401ZM65.544 1.61364V4.732H62.3354V1.61364H65.544ZM41.7144 1.61364V4.732H38.5062V1.61364H41.7144Z" fill="#ED2637"/>
</svg>
